<svg width="49" height="48" viewBox="0 0 49 48" fill="none" xmlns="http://www.w3.org/2000/svg">
<path d="M24.1759 30.9844C24.211 31.0292 24.2558 31.0654 24.3069 31.0904C24.3581 31.1153 24.4143 31.1283 24.4712 31.1283C24.5281 31.1283 24.5843 31.1153 24.6354 31.0904C24.6866 31.0654 24.7314 31.0292 24.7665 30.9844L30.0165 24.3422C30.2087 24.0984 30.0353 23.7375 29.7212 23.7375H26.2478V7.875C26.2478 7.66875 26.079 7.5 25.8728 7.5H23.0603C22.854 7.5 22.6853 7.66875 22.6853 7.875V23.7328H19.2212C18.9071 23.7328 18.7337 24.0938 18.9259 24.3375L24.1759 30.9844ZM41.6274 29.3438H38.8149C38.6087 29.3438 38.4399 29.5125 38.4399 29.7188V36.9375H10.5024V29.7188C10.5024 29.5125 10.3337 29.3438 10.1274 29.3438H7.31494C7.10869 29.3438 6.93994 29.5125 6.93994 29.7188V39C6.93994 39.8297 7.61025 40.5 8.43994 40.5H40.5024C41.3321 40.5 42.0024 39.8297 42.0024 39V29.7188C42.0024 29.5125 41.8337 29.3438 41.6274 29.3438Z" fill="black"/>
</svg>
