<svg width="48" height="48" viewBox="0 0 48 48" fill="none" xmlns="http://www.w3.org/2000/svg">
<path d="M8.40876 0.0142078C3.79051 0.0142078 0.0107422 3.84826 0.0107422 8.53304V34.9685C0.0107422 39.6532 3.79042 43.4859 8.40876 43.4859H34.4693C39.0876 43.4859 42.8659 39.6532 42.8659 34.9685V8.53304C42.8659 3.84835 39.0876 0.0142078 34.4693 0.0142078H8.40876ZM10.521 7.18791C12.7353 7.18791 14.0993 8.66251 14.1414 10.6008C14.1414 12.4964 12.7353 14.0124 10.4782 14.0124H10.4366C8.2644 14.0124 6.86041 12.4965 6.86041 10.6008C6.86041 8.66255 8.30689 7.18791 10.5209 7.18791H10.521ZM29.6033 16.2475C33.8619 16.2475 37.0544 19.071 37.0544 25.1385V36.4656H30.5824V25.898C30.5824 23.2424 29.6458 21.4307 27.3036 21.4307C25.5156 21.4307 24.4498 22.6518 23.9819 23.8315C23.811 24.2535 23.7689 24.8429 23.7689 25.4333V36.4656H17.297C17.297 36.4656 17.3819 18.5643 17.297 16.7107H23.7703V19.5082C24.6303 18.1622 26.1687 16.2474 29.6033 16.2474V16.2475ZM7.24216 16.7122H13.7141V36.4657H7.24216V16.7122Z" fill="black"/>
</svg>
