<svg width="49" height="48" viewBox="0 0 49 48" fill="none" xmlns="http://www.w3.org/2000/svg">
<g clip-path="url(#clip0)">
<path d="M27.7891 0C26.6916 0 25.7552 0.384528 24.9794 1.15416C24.2038 1.92394 23.8169 2.85139 23.8169 3.93595C23.8169 4.98552 24.2036 5.89426 24.9794 6.66384C25.7552 7.43362 26.6917 7.81934 27.7891 7.81934C28.8487 7.81934 29.7663 7.43362 30.5421 6.66384C31.3179 5.89426 31.7061 4.98552 31.7061 3.93595C31.7061 2.85134 31.3179 1.92394 30.5421 1.15416C29.7664 0.384576 28.8487 0 27.7891 0ZM36.2992 7.50456C36.4126 8.09933 36.4694 8.88562 36.4694 9.86525V11.9111H33.689V17.0011C34.4836 16.8961 35.1264 16.8453 35.6184 16.8453L36.4696 16.8963V17.0012H36.413V26.3943C36.413 29.3333 36.8117 31.4851 37.6063 32.8497C38.6659 34.6687 40.5767 35.5776 43.3391 35.5776C45.3069 35.5776 46.9909 35.2284 48.3911 34.5283V29.2809C47.4447 29.8758 46.3848 30.1726 45.2118 30.1726C43.5468 30.1726 42.7151 29.0004 42.7151 26.6564V16.8961H45.1552C45.6094 16.8961 46.0921 16.9136 46.6031 16.9485C47.114 16.9835 47.4629 17.0008 47.6521 17.0008V11.9109H42.7153V9.76003C42.7153 8.92051 42.7721 8.16912 42.8855 7.50427H36.2999L36.2993 7.50446L36.2992 7.50456ZM10.3051 11.6489C7.73187 11.6489 5.51879 12.4367 3.66435 14.0109C1.73462 15.6901 0.768764 17.7885 0.768764 20.3074C0.768764 21.9866 1.29806 23.561 2.35758 25.0302C3.3036 26.3944 4.38279 27.2698 5.59372 27.6547V27.7596C4.38279 28.2489 3.7779 29.4742 3.7779 31.4331C3.7779 32.9376 4.4207 34.0559 5.70727 34.7905V34.8954C2.18821 35.9798 0.428467 37.9912 0.428467 40.9296C0.428467 43.4837 1.60185 45.3563 3.94831 46.5456C5.80224 47.4903 8.16708 47.9621 11.043 47.9621C18.0436 47.9621 21.5442 45.2507 21.5442 39.828C21.5442 36.4348 18.838 34.3534 13.4264 33.5839C12.1778 33.4091 11.2325 32.9898 10.5891 32.325C10.0972 31.8704 9.85137 31.4144 9.85137 30.9596C9.85137 29.6652 10.6079 28.9139 12.1211 28.7038C14.4294 28.3893 16.3126 27.4008 17.7697 25.7392C19.2266 24.0773 19.9551 22.1267 19.9551 19.8878C19.9551 19.1881 19.8039 18.4365 19.5013 17.632C20.4854 17.422 21.2411 17.2298 21.771 17.055V11.6487C19.3867 12.4884 17.287 12.9091 15.4707 12.9091C13.8812 12.0696 12.1596 11.6487 10.3052 11.6487V11.6489H10.3051ZM24.5546 11.9112C24.6302 12.5408 24.6681 13.6785 24.6681 15.3224V31.643C24.6681 33.3224 24.6302 34.5108 24.5546 35.2102H30.9684C30.8926 34.4057 30.8549 33.1111 30.8549 31.3268V15.2174C30.8549 13.6782 30.8926 12.5758 30.9684 11.9111H24.5546V11.9112ZM10.5321 16.4766C11.6674 16.4766 12.5558 16.8802 13.1992 17.6846C13.7289 18.4196 13.9936 19.2931 13.9936 20.3076C13.9936 22.7564 12.8405 23.9811 10.5321 23.9811C8.14833 23.9811 6.95563 22.7739 6.95563 20.36C6.95563 17.7714 8.14833 16.4766 10.5321 16.4766ZM10.9293 37.8348C14.1082 37.8348 15.6976 38.726 15.6976 40.5101C15.6976 42.3993 14.2405 43.3443 11.3267 43.3443C7.99677 43.3443 6.33163 42.4339 6.33163 40.6149C6.33163 38.7607 7.86432 37.8346 10.9295 37.8346L10.9293 37.8348V37.8348Z" fill="black"/>
</g>
<defs>
<clipPath id="clip0">
<rect width="48" height="48" fill="white" transform="translate(0.427612)"/>
</clipPath>
</defs>
</svg>
