<svg width="49" height="48" viewBox="0 0 49 48" fill="none" xmlns="http://www.w3.org/2000/svg">
<path d="M44.0801 8C43.8983 7.98128 43.7152 7.98128 43.5334 8H6.20007C5.9608 8.00369 5.72311 8.03957 5.49341 8.10667L24.7601 27.2933L44.0801 8Z" fill="black"/>
<path d="M46.0534 9.85333L26.6401 29.1867C26.1405 29.6833 25.4646 29.9621 24.7601 29.9621C24.0556 29.9621 23.3797 29.6833 22.8801 29.1867L3.64009 10C3.58094 10.2174 3.54958 10.4414 3.54675 10.6667V37.3333C3.54675 38.0406 3.8277 38.7188 4.3278 39.2189C4.8279 39.719 5.50618 40 6.21342 40H43.5468C44.254 40 44.9323 39.719 45.4324 39.2189C45.9325 38.7188 46.2134 38.0406 46.2134 37.3333V10.6667C46.2028 10.3889 46.1488 10.1144 46.0534 9.85333ZM8.04009 37.3333H6.18675V35.4267L15.8801 25.8133L17.7601 27.6933L8.04009 37.3333ZM43.5201 37.3333H41.6534L31.9334 27.6933L33.8134 25.8133L43.5068 35.4267L43.5201 37.3333Z" fill="black"/>
</svg>
