<svg width="721" height="580" viewBox="0 0 721 580" fill="none" xmlns="http://www.w3.org/2000/svg">
<g opacity="0.5" clip-path="url(#clip0)">
<path d="M585.936 17.2524C576.31 27.0277 574.943 28.2908 574.298 27.6602C573.862 27.2923 572.979 26.5074 572.345 25.9258C569.321 23.2418 568.658 22.7685 567.056 22.4438C563.969 21.8715 561.341 24.1707 561.41 27.3805C561.51 30.7373 565.228 34.0415 568.319 33.4355C570.481 33.027 570.443 33.0864 564.167 39.3856L559.188 44.3341L558.152 43.0699C557.535 42.331 556.911 41.7984 556.715 41.8399C556.52 41.8815 555.934 41.2895 555.366 40.5402C553.619 38.0964 549.493 37.4382 547.319 39.2313C546.28 40.1174 545.558 42.7279 545.912 44.3928C546.567 47.478 550.098 49.9007 553.032 49.2769C554.695 48.9234 554.541 49.1609 549.572 54.1584C546.705 57.02 544.331 59.3162 544.261 59.2286C538.493 53.494 537.485 52.8383 534.404 53.4933C530.835 54.2522 529.844 58.967 532.542 62.2833C533.986 64.0238 535.218 64.5296 537.676 64.314L539.88 64.1014L533.971 69.9642C530.716 73.1643 528.135 76.1698 528.218 76.5616C528.426 77.541 527.131 82.986 526.42 84.2119C525.902 85.141 526.798 86.2301 537.374 97.75L548.884 110.3L552.325 109.415C554.162 108.921 556.296 108.621 557.033 108.721C558.143 108.894 559.048 108.343 562.921 105.165C565.435 103.044 568.287 100.595 569.325 99.7091L571.168 98.0378L570.757 99.7118C570.164 101.732 570.425 102.956 571.763 104.923C573.889 107.952 578.63 108.377 580.666 105.692C582.384 103.433 581.902 100.925 578.973 97.2484C577.101 94.9337 576.599 94.0167 576.956 93.5314C577.236 93.1648 579.729 90.9458 582.564 88.654C586.475 85.4167 587.555 84.7265 587.135 85.6347C586.431 87.3711 587.216 90.5824 588.705 92.0572C591.345 94.6181 595.305 94.4928 597.086 91.8109C598.384 89.7434 597.77 86.1374 595.789 84.5113C595.106 83.9401 594.638 83.4252 594.834 83.3836C595.03 83.342 594.531 82.6803 593.795 81.8642L592.414 80.4176L598.277 75.5371C601.489 72.858 604.237 70.6359 604.383 70.6047C604.53 70.5735 604.4 71.1642 604.106 71.9434C602.69 75.6224 607.004 80.2844 611.062 79.4215C613.458 78.912 615.053 77.0375 615.025 74.7402C614.988 73.3661 614.406 72.3125 612.402 69.6165C610.987 67.7677 609.917 66.1013 610.022 65.8742C610.186 65.6858 615.503 61.126 621.841 55.8374C634.817 44.9915 634.817 44.9915 634.109 39.256C633.352 32.8141 628.17 22.1436 623.623 17.5826C616.683 10.664 605.359 5.24046 599.16 5.89304C596.81 6.13682 596.723 6.20658 585.936 17.2524ZM588.45 27.8759C590.229 29.0331 590.825 30.3908 590.316 32.0856C590.092 32.9523 585.109 38.3624 584.424 38.5079C584.228 38.5495 582.928 37.2394 581.467 35.6562L578.841 32.6828L581.593 29.9992C583.114 28.4986 584.921 27.1419 585.556 27.0068C586.192 26.8716 587.501 27.2587 588.45 27.8759ZM577.77 39.6666C579.113 41.1726 580.267 42.514 580.298 42.6609C580.371 43.0037 569.014 54.7337 568.766 54.5304C568.697 54.4429 567.337 53.0942 565.816 51.4724C563.689 49.1608 563.17 48.401 563.645 47.9929C563.936 47.6752 566.464 45.1416 569.233 42.3007C572.002 39.4599 574.512 37.0836 574.757 37.0316C575.04 36.9202 576.369 38.122 577.77 39.6666ZM562.141 55.5808C563.731 57.2901 564.77 58.8095 564.567 59.0574C564.374 59.3542 561.906 61.9264 559.137 64.7673L554.063 69.9918L551.12 66.7276C548.435 63.7155 548.265 63.3935 548.992 62.7271C549.369 62.3397 551.723 59.9456 554.191 57.3734C556.67 54.8502 558.821 52.7039 559.016 52.6623C559.201 52.5718 560.61 53.9101 562.141 55.5808ZM610.184 51.2524C611.74 52.5595 612.244 54.4486 611.491 56.1954C610.958 57.537 605.942 61.8281 605.408 61.4809C604.933 61.1724 600.034 55.9184 600.122 55.8486C600.16 55.7893 601.548 54.6241 603.198 53.2496C606.809 50.281 608.44 49.7806 610.184 51.2524ZM545.506 68.6889C546.054 69.3403 547.375 70.7484 548.379 71.8656L550.238 73.8761L548.794 75.258C546.787 77.1178 544.957 77.4045 542.881 76.0544C540.439 74.424 540.242 72.7768 542.138 69.9168C543.044 68.6493 543.894 67.5985 544.09 67.5569C544.286 67.5153 544.899 67.999 545.506 68.6889ZM597.451 61.0743C598.235 61.8799 599.438 63.2109 600.163 63.978L601.436 65.3964L595.245 70.6538C591.819 73.5319 588.859 75.9528 588.712 75.984C588.174 76.0984 582.812 69.868 583.221 69.6276C583.493 69.4672 586.241 67.2452 589.317 64.6462C592.442 62.0368 595.189 59.8147 595.532 59.742C595.815 59.6306 596.715 60.2582 597.451 61.0743ZM581.343 76.4246C582.815 78.0567 584.039 79.4856 584.07 79.6325C584.143 79.9753 573.044 89.552 572.506 89.6664C572.31 89.708 570.891 88.3207 569.399 86.5906L566.595 83.5014L572.545 78.5512C575.796 75.8127 578.484 73.5521 578.533 73.5417C578.582 73.5313 579.834 74.8518 581.343 76.4246ZM565.176 90.0476C566.598 91.6901 567.822 93.119 567.962 93.2941C568.39 93.8683 565.57 95.7475 563.663 96.153C560.729 96.7768 558.246 94.2337 558.976 91.4169C559.379 89.9492 561.202 87.4631 562.033 87.2864C562.327 87.224 563.764 88.454 565.176 90.0476Z" fill="#AA2B0F"/>
<path d="M509.738 99.0194C504.802 103.447 498.39 109.11 495.548 111.608C481.648 123.878 461.106 142.168 460.826 142.534C460.672 142.772 466.143 149.03 472.981 156.431C479.819 163.832 485.467 170.207 485.551 170.598C485.665 171.137 490.563 166.769 500.216 157.602C508.163 150.026 514.858 143.535 515.04 143.19C515.271 142.833 514.862 143.074 514.233 143.72C513.555 144.376 512.933 144.815 512.814 144.738C512.744 144.65 507.636 139.134 501.502 132.402C495.32 125.68 489.874 119.775 489.417 119.309C488.573 118.465 488.639 118.297 490.471 116.577C491.587 115.572 492.558 114.854 492.628 114.941C492.736 114.969 498.193 120.924 504.783 128.121C515.547 139.806 516.722 141.245 516.114 141.989C515.544 142.673 515.554 142.722 516.166 142.234C516.564 141.944 522.679 136.089 529.812 129.249L542.758 116.823L535.84 109.286C531.994 105.138 526.617 99.3206 523.873 96.27C521.139 93.2684 518.834 90.841 518.845 90.8899C518.796 90.9003 514.713 94.5324 509.738 99.0194Z" fill="#AA2B0F"/>
<path d="M445.025 156.438C437.809 162.885 431.747 168.269 431.475 168.429C431.164 168.649 456.506 196.735 457.751 197.545C457.989 197.699 463.68 192.497 470.435 186.045C482.665 174.334 483.672 173.301 482.571 173.893C482.249 174.064 476.837 168.561 469.393 160.47L456.77 146.775L457.718 145.703C458.2 145.089 458.519 144.663 458.372 144.694C458.225 144.725 452.251 150.039 445.025 156.438Z" fill="#AA2B0F"/>
<path d="M416.568 181.733L405.958 191.206L408.103 193.36C409.285 194.593 415.457 201.266 421.789 208.211C428.17 215.146 433.438 220.936 433.508 221.023C433.627 221.1 438.28 216.784 443.881 211.396L454.076 201.654L452.883 200.372C452.218 199.643 446.164 193.048 439.504 185.762C432.785 178.439 427.269 172.446 427.258 172.397C427.199 172.358 422.417 176.548 416.568 181.733Z" fill="#AA2B0F"/>
<path d="M269.239 214.285C263.824 216.46 260.2 218.408 255.883 221.424C245.181 229.023 239.274 236.574 225.338 260.215C215.609 276.717 212.623 280.219 204.953 284.05C199.272 286.896 191.664 288.616 174.387 291.01C156.61 293.458 138.733 297.362 130.419 300.563C105.855 310.033 84.9724 326.962 70.8577 348.798C65.0564 357.812 61.5086 365.885 59.3738 374.836C50.943 410.665 67.4367 449.539 110.783 495.959C129.763 516.236 150.246 532.764 167.317 541.419C200.265 558.163 230.611 556.42 259.875 536.123C276.393 524.626 290.37 509.114 299.261 492.278C306.007 479.533 310.088 466.995 315.312 443.005C321.073 416.496 325.109 409.035 337.525 402.045C339.53 400.902 346.693 397.331 353.458 394.05C368.283 386.855 374.067 383.527 381.002 378.162C391.579 369.976 398.862 359.522 402.517 347.382C406.764 333.222 404.127 315.05 395.277 297.226C392.23 291.066 386.686 282.059 382.608 276.58C380.454 273.659 379.882 272.655 380.299 272.208C380.599 271.94 382.12 270.439 383.749 268.967L386.588 266.213L384.838 264.231C382.244 261.404 362.225 239.608 359.513 236.704L357.256 234.266L354.058 237.25C352.302 238.851 350.701 240.215 350.457 240.267C350.212 240.319 347.896 238.56 345.329 236.342C318.147 213.305 291.291 205.502 269.239 214.285ZM357.718 262.882C365.442 271.323 371.973 278.482 372.203 278.843C372.722 279.603 369.344 283.187 368.661 282.616C367.195 281.494 339.329 250.669 339.472 250.383C340.137 249.423 342.982 247.18 343.328 247.362C343.506 247.478 350.005 254.49 357.718 262.882ZM341.604 278.439C349.715 287.258 356.336 294.603 356.378 294.799C356.409 294.946 355.674 295.818 354.675 296.645C353.22 297.978 352.791 298.121 352.187 297.686C350.614 296.536 322.51 265.557 322.692 265.211C323.357 264.251 326.202 262.008 326.499 262.201C326.725 262.306 333.494 269.619 341.604 278.439ZM327.092 291.915C337.866 303.648 342.204 308.663 341.826 309.051C341.102 309.972 338.519 312.006 338.282 311.852C338.163 311.774 331.196 304.247 322.827 295.176L307.551 278.616L309.345 276.955C310.275 276.04 311.246 275.322 311.452 275.329C311.707 275.326 318.713 282.794 327.092 291.915ZM314.233 303.554C322.752 312.85 329.663 320.594 329.624 320.653C329.547 320.772 328.656 321.627 327.726 322.541L325.942 324.251L311.113 308.108C302.992 299.239 295.885 291.537 295.418 291.022C294.574 290.178 294.641 290.01 296.347 288.419C297.375 287.484 298.277 286.678 298.423 286.647C298.57 286.616 305.656 294.22 314.233 303.554ZM281.715 292.196C283.834 292.308 286.77 292.656 288.205 292.914L290.781 293.493L286.562 297.205L282.342 300.917L279.538 300.95C275.606 300.967 268.4 302.653 264.871 304.324C263.194 305.09 260.178 307.011 258.158 308.567C255.225 310.879 253.774 312.468 251.129 316.613C248.221 320.967 247.573 322.487 246.51 326.859C244.944 333.437 244.922 336.461 246.265 342.778C247.098 346.696 247.79 348.749 249.264 351.354C254.901 361.518 264.247 367.976 275.611 369.501C279.825 370.09 280.579 370.032 286.741 368.722C292.609 367.474 293.702 367.088 296.777 365.206C301.799 362.142 305.355 358.673 308.424 353.875C311.415 349.195 313.395 343.605 313.824 338.651C314.09 335.575 314.129 335.515 317.908 331.897C319.992 329.918 321.785 328.257 321.883 328.236C322.421 328.122 322.96 332.819 322.798 336.385C322.49 344.793 320.855 350.566 316.82 357.31C302.563 381.122 270.764 385.887 250.322 367.149C239.671 357.437 234.506 341.798 237.144 327.52C239.746 313.556 249.081 301.693 262.264 295.666C266.729 293.59 276.435 291.885 281.715 292.196ZM279.723 303.982C281.203 303.974 284.691 304.512 287.494 305.196C304.302 309.249 314.131 326.148 309.844 343.49C308.77 347.813 304.487 355.07 301.2 358.123C290.838 367.799 275.541 369.414 263.535 361.985C255.779 357.236 251.171 350.948 249.251 342.399C248.668 339.657 248.205 336.275 248.273 334.674C248.69 323.171 255.132 312.844 265.283 307.462C268.498 305.754 275.693 304.02 279.723 303.982ZM155.395 362.508C156.666 362.954 241.972 456.244 242.212 457.37C242.649 459.427 241.53 460.893 235.258 466.731C228.549 472.917 226.689 474.029 224.763 472.903C223.085 471.98 138.727 380.025 138.159 378.559C137.317 376.281 138.66 374.664 148.62 365.739C151.665 362.993 153.936 361.896 155.395 362.508Z" fill="#AA2B0F"/>
<path d="M392.834 202.8C387.723 207.367 383.35 211.316 383.119 211.673C382.888 212.029 387.455 217.405 396.49 227.205C404.063 235.422 410.434 242.308 410.671 242.462C410.908 242.617 415.303 238.765 420.488 233.824L429.868 224.817L428.02 222.856C423.658 218.204 404.612 197.378 403.458 196.037L402.165 194.52L392.834 202.8Z" fill="#AA2B0F"/>
<path d="M370.09 222.99C365.444 227.1 361.654 230.67 361.696 230.866C361.748 231.111 368.23 238.28 376.141 246.886C385.385 256.949 390.668 262.326 390.959 262.008C394.808 258.477 406.038 247.593 406.395 247.108C406.79 246.563 405.326 244.725 399.858 238.721C395.943 234.487 389.551 227.503 385.635 223.268L378.567 215.507L370.09 222.99Z" fill="#AA2B0F"/>
</g>
<defs>
<clipPath id="clip0">
<rect width="639.906" height="456.089" fill="white" transform="translate(0 133.077) rotate(-12.003)"/>
</clipPath>
</defs>
</svg>
