<svg width="1920" height="1672" viewBox="0 0 1920 1672" fill="none" xmlns="http://www.w3.org/2000/svg">
<path d="M1475.43 561C1661.62 561 1868.89 698.355 1954.71 787.057L2034 1318.38L-72 1334.4L-49.7284 968.615L633.563 787.057C761.848 755.908 1295.09 561 1475.43 561Z" fill="url(#paint0_linear)"/>
<rect x="-21" y="1145" width="1941" height="527" fill="url(#paint1_linear)"/>
<path d="M1494.07 396.793C1519.55 396.793 1540.2 376.162 1540.2 350.714C1540.2 325.265 1519.55 304.634 1494.07 304.634C1468.6 304.634 1447.95 325.265 1447.95 350.714C1447.95 376.162 1468.6 396.793 1494.07 396.793Z" fill="#2F2E41"/>
<path d="M1450.24 646.518L1449.02 625.632L1529.09 610.98L1530.89 641.809L1450.24 646.518Z" fill="#FFB8B8"/>
<path d="M1454.12 610.363L1456.48 650.646L1431.09 652.128L1427.25 586.482C1430.58 586.288 1433.92 586.751 1437.08 587.846C1440.23 588.94 1443.14 590.645 1445.64 592.863C1448.13 595.08 1450.17 597.767 1451.62 600.77C1453.08 603.772 1453.93 607.032 1454.12 610.363Z" fill="#2F2E41"/>
<path d="M1485.07 646.327L1471.77 662.49L1403.03 618.938L1422.66 595.083L1485.07 646.327Z" fill="#FFB8B8"/>
<path d="M1457.65 670.24L1483.29 639.067L1502.94 655.2L1461.14 706C1458.56 703.881 1456.43 701.276 1454.86 698.332C1453.28 695.389 1452.31 692.164 1451.98 688.844C1451.66 685.523 1451.99 682.171 1452.96 678.979C1453.93 675.787 1455.53 672.818 1457.65 670.24V670.24Z" fill="#2F2E41"/>
<path d="M1446.8 571.16L1437.71 613.96C1437.5 614.945 1437.51 615.965 1437.74 616.945C1437.97 617.926 1438.42 618.843 1439.05 619.631C1439.68 620.419 1440.47 621.058 1441.38 621.502C1442.28 621.947 1443.27 622.186 1444.28 622.202L1533.63 623.642C1534.64 623.658 1535.63 623.452 1536.55 623.037C1537.47 622.623 1538.28 622.011 1538.94 621.246C1539.59 620.48 1540.07 619.58 1540.33 618.609C1540.6 617.638 1540.64 616.621 1540.47 615.63L1532.65 571.39C1532.37 569.809 1531.55 568.378 1530.32 567.346C1529.09 566.315 1527.53 565.75 1525.92 565.75H1453.48C1451.92 565.75 1450.4 566.287 1449.18 567.272C1447.96 568.257 1447.12 569.629 1446.8 571.16V571.16Z" fill="#2F2E41"/>
<path d="M1461.61 586.229C1461.61 586.229 1374.48 531.617 1357.4 560.63C1348.86 575.136 1353.13 589.216 1359.54 599.669C1365.48 609.187 1374.02 616.817 1384.14 621.669L1454.78 656.201L1480.4 628.895L1463.32 613.535L1461.61 586.229Z" fill="#2F2E41"/>
<path d="M1506.03 577.696C1506.03 577.696 1618.79 545.27 1596.58 606.709C1574.37 668.148 1490.66 644.255 1490.66 644.255L1482.11 618.655L1511.16 598.176L1506.03 577.696Z" fill="#2F2E41"/>
<path d="M1494.65 415.695C1517.82 415.695 1536.61 396.929 1536.61 373.779C1536.61 350.629 1517.82 331.862 1494.65 331.862C1471.48 331.862 1452.69 350.629 1452.69 373.779C1452.69 396.929 1471.48 415.695 1494.65 415.695Z" fill="#FFB8B8"/>
<path d="M1496.85 584.469C1479.41 584.206 1462.07 581.923 1445.16 577.666L1444.66 577.529L1421.24 469.935C1419.14 460.48 1420.57 450.582 1425.27 442.11C1429.97 433.638 1437.61 427.179 1446.75 423.952C1474.99 413.83 1505.77 413.216 1534.39 422.204H1534.4C1544 425.296 1552.08 431.891 1557.03 440.674C1561.98 449.457 1563.44 459.781 1561.11 469.588L1534.95 577.439L1534.59 577.614C1523.72 582.758 1510.13 584.469 1496.85 584.469Z" fill="#BB0016"/>
<path d="M1465.4 592.827C1466.25 590.467 1467.61 588.321 1469.38 586.541C1471.15 584.762 1473.29 583.391 1475.64 582.527C1478 581.663 1480.52 581.325 1483.02 581.539C1485.52 581.752 1487.95 582.511 1490.13 583.761L1536.23 543.784L1540.4 575.201L1495.98 608.347C1493.64 611.862 1490.08 614.394 1485.99 615.465C1481.9 616.536 1477.56 616.071 1473.79 614.158C1470.02 612.245 1467.08 609.017 1465.54 605.086C1463.99 601.154 1463.94 596.793 1465.4 592.827V592.827Z" fill="#FFB8B8"/>
<path d="M1509.37 601.547C1508.62 601.546 1507.87 601.437 1507.15 601.222C1505.99 600.883 1504.92 600.27 1504.04 599.433C1503.16 598.597 1502.49 597.562 1502.09 596.416L1496.53 580.666C1496.01 579.21 1495.94 577.631 1496.34 576.137C1496.73 574.643 1497.58 573.305 1498.75 572.299L1561.57 534.627L1536.81 424.274L1537.44 424.122C1537.69 424.059 1563.06 418.291 1573.46 445.985C1580.74 465.381 1607.68 507.556 1605.78 536.055C1605.42 541.756 1603.14 547.168 1599.32 551.419C1595.51 555.67 1590.36 558.511 1584.73 559.483L1514.02 599.952C1512.69 600.984 1511.05 601.545 1509.37 601.547Z" fill="#BB0016"/>
<path d="M1516.41 589.084C1515.56 586.723 1514.2 584.577 1512.43 582.798C1510.66 581.018 1508.52 579.648 1506.17 578.783C1503.81 577.919 1501.29 577.582 1498.79 577.795C1496.29 578.008 1493.86 578.767 1491.68 580.018L1445.58 540.041L1441.41 571.457L1485.83 604.604C1488.17 608.118 1491.73 610.651 1495.82 611.722C1499.91 612.793 1504.25 612.327 1508.02 610.414C1511.79 608.501 1514.73 605.273 1516.27 601.342C1517.82 597.411 1517.87 593.049 1516.41 589.084V589.084Z" fill="#FFB8B8"/>
<path d="M1477.07 601.547C1475.38 601.545 1473.75 600.984 1472.41 599.952L1396.58 562.896C1390.95 561.924 1385.81 559.083 1381.99 554.833C1378.17 550.582 1375.89 545.169 1375.53 539.468C1373.63 510.969 1405.7 465.381 1412.98 445.985C1423.37 418.291 1448.74 424.057 1449 424.122L1449.63 424.274L1419.74 538.04L1487.68 572.299C1488.86 573.305 1489.7 574.643 1490.1 576.137C1490.5 577.631 1490.43 579.21 1489.91 580.666L1484.34 596.416C1483.95 597.562 1483.28 598.597 1482.4 599.433C1481.52 600.27 1480.45 600.883 1479.28 601.222C1478.56 601.437 1477.82 601.546 1477.07 601.547V601.547Z" fill="#BB0016"/>
<path d="M1567.53 618.655H1415.49C1412.32 618.651 1409.28 617.392 1407.03 615.152C1404.79 612.912 1403.53 609.876 1403.53 606.709V523.084C1403.53 519.916 1404.79 516.88 1407.03 514.64C1409.28 512.401 1412.32 511.141 1415.49 511.137H1567.53C1570.7 511.141 1573.74 512.401 1575.99 514.64C1578.23 516.88 1579.49 519.916 1579.49 523.084V606.709C1579.49 609.876 1578.23 612.912 1575.98 615.152C1573.74 617.392 1570.7 618.651 1567.53 618.655V618.655Z" fill="#CE7522"/>
<path d="M1491.51 575.136C1497.17 575.136 1501.76 570.552 1501.76 564.896C1501.76 559.241 1497.17 554.656 1491.51 554.656C1485.85 554.656 1481.26 559.241 1481.26 564.896C1481.26 570.552 1485.85 575.136 1491.51 575.136Z" fill="white"/>
<path d="M1452.27 372.073C1449.78 365.771 1453.86 358.262 1459.92 355.209C1465.97 352.157 1473.27 352.737 1479.75 354.749C1485.19 356.44 1490.29 359.06 1495.6 361.129C1500.83 363.446 1506.55 364.463 1512.26 364.094C1517.92 363.455 1523.56 360.283 1525.87 355.083C1528.27 349.692 1526.64 343.114 1522.94 338.513C1519.01 334.066 1513.91 330.796 1508.23 329.067C1495.75 324.674 1481.33 324.545 1469.74 330.932C1458.15 337.318 1450.27 350.917 1452.67 363.921" fill="#2F2E41"/>
<path d="M1279.4 622.201C1271.27 600.891 1266.7 578.392 1265.87 555.601C1265.65 549.257 1265.71 542.913 1266.07 536.567C1266.08 536.238 1265.96 535.917 1265.74 535.672C1265.52 535.427 1265.22 535.277 1264.89 535.253C1264.56 535.229 1264.23 535.334 1263.98 535.545C1263.73 535.756 1263.57 536.057 1263.53 536.384C1262.26 559.488 1264.79 582.643 1271.03 604.925C1272.78 611.145 1274.81 617.277 1277.12 623.32C1277.7 624.845 1279.98 623.717 1279.4 622.201V622.201Z" fill="#CE7522"/>
<path d="M1273.38 537.509C1281.35 533.596 1284.64 523.968 1280.73 516.004C1276.81 508.039 1267.17 504.755 1259.2 508.669C1251.23 512.582 1247.94 522.21 1251.86 530.175C1255.77 538.139 1265.41 541.423 1273.38 537.509Z" fill="#CE7522"/>
<path d="M1281.06 621.86C1275.79 608.035 1272.83 593.438 1272.29 578.653C1272.14 574.537 1272.18 570.421 1272.41 566.305C1272.42 566.091 1272.35 565.883 1272.2 565.724C1272.06 565.565 1271.86 565.468 1271.65 565.452C1271.44 565.437 1271.23 565.505 1271.06 565.642C1270.9 565.779 1270.79 565.974 1270.77 566.186C1269.94 581.174 1271.59 596.196 1275.64 610.652C1276.77 614.687 1278.09 618.665 1279.59 622.585C1279.96 623.575 1281.44 622.843 1281.06 621.86L1281.06 621.86Z" fill="#CE7522"/>
<path d="M1277.16 566.916C1282.33 564.377 1284.47 558.131 1281.92 552.964C1279.38 547.797 1273.13 545.667 1267.96 548.206C1262.79 550.744 1260.65 556.991 1263.19 562.158C1265.74 567.324 1271.99 569.455 1277.16 566.916Z" fill="#CE7522"/>
<path d="M1278.76 621.893C1266.09 614.233 1254.77 604.546 1245.24 593.219C1242.59 590.064 1240.09 586.794 1237.74 583.407C1237.61 583.234 1237.43 583.116 1237.22 583.078C1237.01 583.04 1236.79 583.085 1236.61 583.204C1236.43 583.323 1236.31 583.506 1236.26 583.715C1236.22 583.923 1236.26 584.142 1236.37 584.323C1244.94 596.649 1255.49 607.483 1267.58 616.391C1270.96 618.877 1274.45 621.204 1278.04 623.373C1278.95 623.921 1279.66 622.437 1278.76 621.893V621.893Z" fill="#CE7522"/>
<path d="M1237.07 585.778C1242.24 583.24 1244.38 576.993 1241.84 571.826C1239.29 566.66 1233.04 564.529 1227.87 567.068C1222.7 569.607 1220.56 575.853 1223.1 581.02C1225.65 586.187 1231.9 588.317 1237.07 585.778Z" fill="#CE7522"/>
<path d="M1658.99 615.303C1669.09 594.852 1675.76 572.883 1678.73 550.272C1679.56 543.977 1680.09 537.655 1680.34 531.304C1680.35 530.976 1680.5 530.667 1680.74 530.444C1680.98 530.22 1681.3 530.099 1681.63 530.107C1681.96 530.114 1682.28 530.249 1682.51 530.482C1682.74 530.716 1682.87 531.031 1682.88 531.36C1681.97 554.481 1677.26 577.295 1668.95 598.891C1666.62 604.919 1664.02 610.832 1661.15 616.631C1660.43 618.094 1658.27 616.757 1658.99 615.303V615.303Z" fill="#CE7522"/>
<path d="M1672.96 531.554C1665.4 526.908 1663.03 517.012 1667.68 509.452C1672.33 501.892 1682.23 499.53 1689.8 504.176C1697.37 508.822 1699.74 518.717 1695.09 526.277C1690.44 533.837 1680.53 536.2 1672.96 531.554Z" fill="#CE7522"/>
<path d="M1657.36 614.806C1663.92 601.539 1668.24 587.286 1670.17 572.617C1670.71 568.534 1671.05 564.432 1671.21 560.312C1671.22 560.099 1671.32 559.899 1671.48 559.754C1671.63 559.609 1671.84 559.531 1672.05 559.535C1672.27 559.54 1672.47 559.627 1672.62 559.779C1672.77 559.931 1672.86 560.135 1672.86 560.349C1672.27 575.348 1669.22 590.149 1663.83 604.158C1662.32 608.069 1660.63 611.906 1658.77 615.667C1658.3 616.617 1656.9 615.749 1657.36 614.806L1657.36 614.806Z" fill="#CE7522"/>
<path d="M1666.43 560.474C1661.52 557.46 1659.98 551.04 1663 546.136C1666.02 541.231 1672.44 539.698 1677.35 542.713C1682.26 545.727 1683.8 552.146 1680.78 557.051C1677.77 561.955 1671.34 563.488 1666.43 560.474Z" fill="#CE7522"/>
<path d="M1659.65 615.055C1672.99 608.621 1685.17 600.043 1695.73 589.663C1698.66 586.772 1701.46 583.751 1704.12 580.601C1704.26 580.44 1704.46 580.34 1704.67 580.322C1704.89 580.305 1705.1 580.37 1705.26 580.505C1705.43 580.64 1705.54 580.834 1705.56 581.046C1705.59 581.258 1705.53 581.472 1705.4 581.642C1695.7 593.106 1684.18 602.899 1671.3 610.631C1667.7 612.787 1664.01 614.775 1660.23 616.597C1659.27 617.057 1658.7 615.512 1659.65 615.055V615.055Z" fill="#CE7522"/>
<path d="M1704.56 583.025C1699.65 580.011 1698.12 573.591 1701.14 568.687C1704.15 563.782 1710.58 562.249 1715.49 565.263C1720.4 568.278 1721.93 574.697 1718.92 579.602C1715.9 584.506 1709.47 586.039 1704.56 583.025Z" fill="#CE7522"/>
<defs>
<linearGradient id="paint0_linear" x1="981" y1="561" x2="980.111" y2="1387.8" gradientUnits="userSpaceOnUse">
<stop stop-color="#B41005"/>
<stop offset="1" stop-color="#FF4D00" stop-opacity="0.6"/>
</linearGradient>
<linearGradient id="paint1_linear" x1="949.5" y1="1145" x2="949.5" y2="1655.5" gradientUnits="userSpaceOnUse">
<stop offset="0.349649" stop-color="#EF7249"/>
<stop offset="1" stop-color="#EB7B5A" stop-opacity="0"/>
</linearGradient>
</defs>
</svg>
