<svg width="457" height="447" viewBox="0 0 457 447" fill="none" xmlns="http://www.w3.org/2000/svg">
<path d="M215.166 251.227C231.284 251.227 244.351 238.165 244.351 222.052C244.351 205.94 231.284 192.878 215.166 192.878C199.048 192.878 185.981 205.94 185.981 222.052C185.981 238.165 199.048 251.227 215.166 251.227Z" fill="#2F2E41"/>
<path d="M187.436 409.339L186.663 396.115L237.322 386.839L238.463 406.358L187.436 409.339Z" fill="#FFB8B8"/>
<path d="M189.89 386.448L191.382 411.953L175.318 412.891L172.887 371.328C174.997 371.205 177.11 371.498 179.106 372.191C181.102 372.884 182.943 373.964 184.521 375.368C186.1 376.772 187.387 378.473 188.308 380.374C189.229 382.275 189.767 384.339 189.89 386.448Z" fill="#2F2E41"/>
<path d="M209.47 409.218L201.055 419.452L157.563 391.877L169.982 376.774L209.47 409.218Z" fill="#FFB8B8"/>
<path d="M192.119 424.359L208.347 404.622L220.779 414.836L194.333 447C192.7 445.659 191.348 444.009 190.353 442.145C189.359 440.281 188.741 438.24 188.535 436.138C188.33 434.035 188.54 431.913 189.155 429.892C189.77 427.871 190.777 425.991 192.119 424.359Z" fill="#2F2E41"/>
<path d="M185.255 361.626L179.504 388.725C179.372 389.349 179.379 389.995 179.526 390.616C179.673 391.236 179.955 391.817 180.353 392.316C180.75 392.815 181.253 393.219 181.826 393.501C182.398 393.782 183.026 393.934 183.664 393.944L240.194 394.855C240.831 394.866 241.463 394.735 242.043 394.473C242.624 394.21 243.14 393.823 243.553 393.338C243.967 392.854 244.268 392.283 244.435 391.669C244.603 391.054 244.632 390.41 244.521 389.783L239.577 361.772C239.4 360.772 238.876 359.865 238.098 359.212C237.319 358.559 236.335 358.201 235.319 358.201H189.484C188.493 358.201 187.532 358.541 186.762 359.165C185.992 359.789 185.46 360.657 185.255 361.626Z" fill="#2F2E41"/>
<path d="M194.629 371.168C194.629 371.168 139.502 336.59 128.693 354.96C123.288 364.144 125.991 373.059 130.044 379.677C133.806 385.703 139.205 390.535 145.612 393.607L190.305 415.47L206.519 398.181L195.71 388.457L194.629 371.168Z" fill="#2F2E41"/>
<path d="M222.733 365.765C222.733 365.765 294.073 345.235 280.021 384.134C265.969 423.034 213.004 407.906 213.004 407.906L207.6 391.698L225.975 378.732L222.733 365.765Z" fill="#2F2E41"/>
<path d="M215.532 263.195C230.194 263.195 242.081 251.313 242.081 236.656C242.081 221.999 230.194 210.117 215.532 210.117C200.87 210.117 188.984 221.999 188.984 236.656C188.984 251.313 200.87 263.195 215.532 263.195Z" fill="#FFB8B8"/>
<path d="M216.923 370.053C205.891 369.887 194.916 368.441 184.218 365.746L183.902 365.66L169.087 297.537C167.754 291.55 168.66 285.284 171.634 279.92C174.608 274.556 179.444 270.466 185.228 268.423C203.096 262.014 222.57 261.626 240.679 267.316H240.679C246.755 269.274 251.87 273.449 255.003 279.01C258.135 284.571 259.055 291.108 257.579 297.317L241.032 365.603L240.799 365.713C233.922 368.97 225.323 370.053 216.923 370.053Z" fill="#BB0016"/>
<path d="M197.023 375.345C197.561 373.851 198.421 372.492 199.541 371.365C200.661 370.239 202.014 369.371 203.506 368.824C204.998 368.277 206.591 368.063 208.175 368.198C209.758 368.333 211.292 368.813 212.67 369.605L241.84 344.294L244.479 364.185L216.374 385.172C214.89 387.397 212.641 389 210.053 389.678C207.465 390.357 204.718 390.062 202.333 388.851C199.947 387.64 198.09 385.596 197.111 383.107C196.132 380.618 196.101 377.856 197.023 375.345Z" fill="#FFB8B8"/>
<path d="M224.844 380.866C224.369 380.866 223.897 380.797 223.442 380.66C222.704 380.446 222.028 380.057 221.471 379.528C220.914 378.998 220.492 378.343 220.24 377.617L216.719 367.645C216.39 366.724 216.348 365.724 216.599 364.778C216.851 363.832 217.383 362.985 218.127 362.348L257.871 338.496L242.204 268.627L242.603 268.531C242.765 268.491 258.817 264.838 265.394 282.373C270.001 294.654 287.047 321.356 285.844 339.4C285.616 343.01 284.177 346.437 281.76 349.128C279.344 351.819 276.09 353.618 272.525 354.234L227.788 379.856C226.945 380.51 225.91 380.865 224.844 380.866Z" fill="#BB0016"/>
<path d="M229.301 372.975C228.763 371.481 227.904 370.122 226.784 368.995C225.664 367.868 224.31 367.001 222.819 366.454C221.327 365.906 219.733 365.693 218.15 365.828C216.567 365.963 215.032 366.443 213.655 367.235L184.485 341.924L181.845 361.815L209.95 382.801C211.435 385.027 213.684 386.63 216.272 387.308C218.86 387.986 221.607 387.692 223.992 386.48C226.377 385.269 228.235 383.225 229.214 380.736C230.192 378.247 230.223 375.486 229.301 372.975Z" fill="#FFB8B8"/>
<path d="M204.408 380.866C203.341 380.865 202.306 380.509 201.463 379.856L153.483 356.395C149.918 355.779 146.665 353.981 144.248 351.289C141.832 348.598 140.393 345.171 140.164 341.561C138.962 323.517 159.251 294.654 163.857 282.373C170.434 264.838 186.487 268.489 186.649 268.531L187.047 268.627L168.138 340.657L211.124 362.348C211.868 362.985 212.401 363.832 212.652 364.778C212.903 365.724 212.862 366.724 212.532 367.645L209.011 377.617C208.759 378.343 208.337 378.998 207.78 379.528C207.223 380.057 206.547 380.446 205.809 380.66C205.354 380.797 204.882 380.866 204.408 380.866Z" fill="#BB0016"/>
<path d="M261.646 391.698H165.444C163.438 391.696 161.515 390.898 160.096 389.48C158.678 388.062 157.88 386.14 157.878 384.134V331.187C157.88 329.182 158.678 327.26 160.096 325.842C161.515 324.424 163.438 323.626 165.444 323.624H261.646C263.652 323.626 265.575 324.424 266.993 325.842C268.412 327.26 269.21 329.182 269.212 331.187V384.134C269.21 386.14 268.412 388.062 266.993 389.48C265.575 390.898 263.652 391.696 261.646 391.698Z" fill="#CE7522"/>
<path d="M213.545 364.144C217.127 364.144 220.03 361.242 220.03 357.661C220.03 354.08 217.127 351.178 213.545 351.178C209.963 351.178 207.059 354.08 207.059 357.661C207.059 361.242 209.963 364.144 213.545 364.144Z" fill="white"/>
<path d="M188.718 235.576C187.144 231.586 189.726 226.831 193.556 224.899C197.385 222.966 202.007 223.334 206.103 224.608C209.546 225.678 212.772 227.337 216.131 228.647C219.442 230.114 223.059 230.758 226.673 230.524C230.255 230.119 233.821 228.111 235.287 224.819C236.806 221.406 235.773 217.241 233.433 214.328C230.943 211.512 227.721 209.442 224.124 208.347C216.225 205.565 207.102 205.484 199.769 209.528C192.436 213.571 187.452 222.181 188.968 230.415" fill="#2F2E41"/>
<path d="M79.3412 393.943C74.1986 380.451 71.3077 366.206 70.7837 351.776C70.6401 347.759 70.6805 343.742 70.905 339.725C70.9129 339.516 70.8396 339.313 70.7006 339.158C70.5615 339.003 70.3676 338.908 70.1597 338.892C69.9518 338.877 69.7461 338.944 69.5861 339.077C69.4261 339.211 69.3243 339.401 69.3022 339.609C68.4946 354.236 70.0976 368.897 74.0469 383.005C75.1524 386.943 76.4364 390.826 77.8991 394.652C78.2674 395.617 79.7072 394.903 79.3412 393.943Z" fill="#CE7522"/>
<path d="M75.534 340.321C80.5783 337.843 82.6587 331.747 80.1808 326.705C77.7028 321.662 71.6048 319.583 66.5604 322.061C61.5161 324.538 59.4357 330.635 61.9136 335.677C64.3916 340.72 70.4896 342.799 75.534 340.321Z" fill="#CE7522"/>
<path d="M80.3947 393.727C77.0584 384.974 75.1829 375.732 74.843 366.371C74.7498 363.765 74.776 361.159 74.9216 358.553C74.9268 358.418 74.8792 358.286 74.789 358.185C74.6988 358.084 74.573 358.023 74.4381 358.013C74.3033 358.003 74.1699 358.046 74.0661 358.133C73.9623 358.22 73.8963 358.343 73.8819 358.478C73.358 367.967 74.3979 377.478 76.96 386.631C77.6771 389.186 78.5102 391.704 79.4591 394.187C79.698 394.813 80.6321 394.349 80.3947 393.727L80.3947 393.727Z" fill="#CE7522"/>
<path d="M77.9248 358.94C81.1972 357.332 82.5469 353.377 80.9393 350.106C79.3318 346.835 75.3757 345.486 72.1032 347.093C68.8307 348.701 67.481 352.656 69.0886 355.927C70.6962 359.198 74.6523 360.547 77.9248 358.94Z" fill="#CE7522"/>
<path d="M78.9391 393.748C70.9228 388.898 63.7579 382.765 57.7303 375.593C56.0536 373.596 54.4709 371.525 52.9821 369.381C52.9031 369.271 52.7845 369.196 52.6514 369.172C52.5183 369.148 52.381 369.177 52.2686 369.252C52.1562 369.328 52.0775 369.444 52.049 369.576C52.0205 369.708 52.0445 369.846 52.1159 369.961C57.5414 377.765 64.2133 384.624 71.8646 390.265C74.0021 391.838 76.2086 393.312 78.484 394.685C79.0577 395.032 79.5092 394.093 78.9391 393.748Z" fill="#CE7522"/>
<path d="M52.5595 370.882C55.8319 369.275 57.1816 365.32 55.574 362.049C53.9665 358.777 50.0104 357.429 46.7379 359.036C43.4654 360.643 42.1158 364.598 43.7233 367.869C45.3309 371.141 49.287 372.49 52.5595 370.882Z" fill="#CE7522"/>
<path d="M319.511 389.576C325.902 376.627 330.122 362.718 332.003 348.401C332.524 344.416 332.862 340.413 333.017 336.392C333.029 336.184 333.121 335.989 333.274 335.847C333.427 335.706 333.629 335.629 333.837 335.634C334.046 335.639 334.244 335.724 334.391 335.872C334.538 336.02 334.621 336.219 334.624 336.428C334.05 351.067 331.073 365.511 325.812 379.184C324.341 383.001 322.697 386.745 320.88 390.417C320.423 391.343 319.056 390.496 319.511 389.576Z" fill="#CE7522"/>
<path d="M328.352 336.55C323.564 333.609 322.067 327.344 325.009 322.557C327.951 317.77 334.218 316.275 339.006 319.216C343.795 322.158 345.292 328.423 342.35 333.209C339.408 337.996 333.141 339.492 328.352 336.55Z" fill="#CE7522"/>
<path d="M318.483 389.261C322.629 380.861 325.366 371.837 326.587 362.549C326.925 359.964 327.144 357.367 327.245 354.759C327.252 354.624 327.312 354.497 327.411 354.405C327.511 354.313 327.642 354.264 327.777 354.267C327.912 354.27 328.041 354.325 328.136 354.421C328.231 354.517 328.285 354.646 328.287 354.782C327.915 364.278 325.983 373.649 322.571 382.52C321.616 384.996 320.549 387.425 319.371 389.807C319.074 390.408 318.188 389.858 318.483 389.261L318.483 389.261Z" fill="#CE7522"/>
<path d="M324.219 354.861C321.112 352.953 320.141 348.888 322.049 345.783C323.958 342.677 328.024 341.707 331.13 343.615C334.237 345.524 335.208 349.588 333.299 352.694C331.391 355.799 327.325 356.769 324.219 354.861Z" fill="#CE7522"/>
<path d="M319.93 389.419C328.367 385.345 336.078 379.914 342.755 373.342C344.612 371.512 346.383 369.599 348.067 367.604C348.156 367.502 348.281 367.439 348.416 367.428C348.551 367.417 348.684 367.458 348.789 367.544C348.894 367.629 348.962 367.752 348.977 367.886C348.993 368.02 348.957 368.156 348.875 368.263C342.738 375.522 335.45 381.722 327.301 386.617C325.025 387.983 322.689 389.242 320.295 390.395C319.691 390.686 319.33 389.708 319.93 389.419Z" fill="#CE7522"/>
<path d="M348.346 369.139C345.24 367.231 344.268 363.166 346.177 360.061C348.086 356.955 352.151 355.985 355.258 357.893C358.364 359.802 359.335 363.866 357.427 366.972C355.518 370.077 351.453 371.047 348.346 369.139Z" fill="#CE7522"/>
</svg>
