<svg width="346" height="346" viewBox="0 0 346 346" fill="none" xmlns="http://www.w3.org/2000/svg">
<g opacity="0.5">
<path d="M333.244 58.1601C333.244 27.5716 308.358 2.68652 277.77 2.68652H68.2418C37.6539 2.68652 12.7688 27.5716 12.7688 58.1601V178.71H333.248V58.1601H333.244ZM287.929 156.612C287.929 161.519 283.938 165.51 279.03 165.51H69.7644C64.8567 165.51 60.866 161.519 60.866 156.612V41.1204C60.866 36.2127 64.8567 32.2219 69.7644 32.2219H279.031C283.938 32.2219 287.93 36.2127 287.93 41.1204V156.612H287.929Z" fill="#AA2B0F"/>
<path d="M58.5672 343.313H287.44C319.728 343.313 345.999 317.045 345.999 284.757L334.606 200.199C335.068 199.237 335.344 198.173 335.344 197.037V195.776V194.451V192.977C335.344 188.915 332.05 185.62 327.986 185.62H18.0203C13.9572 185.62 10.6631 188.914 10.6631 192.977V194.451V195.776V197.037C10.6631 198.173 10.9434 199.237 11.4056 200.199L0 284.935C0.00742469 317.045 26.2791 343.313 58.5672 343.313ZM325.958 231.586C330.301 231.382 333.939 233.687 334.083 236.736C334.228 239.784 330.82 242.42 326.472 242.62C322.125 242.821 318.491 240.519 318.347 237.471C318.207 234.422 321.615 231.79 325.958 231.586ZM308.615 256.433C304.272 256.638 300.633 254.332 300.488 251.284C300.345 248.236 303.752 245.6 308.096 245.4C312.443 245.195 316.078 247.501 316.223 250.549C316.37 253.593 312.962 256.229 308.615 256.433ZM306.885 219.503C311.228 219.299 314.866 221.605 315.011 224.652C315.154 227.701 311.747 230.337 307.4 230.537C303.052 230.738 299.417 228.436 299.273 225.388C299.133 222.339 302.542 219.704 306.885 219.503ZM289.027 233.316C293.37 233.112 297.009 235.418 297.154 238.466C297.298 241.515 293.89 244.15 289.541 244.351C285.195 244.555 281.56 242.25 281.416 239.201C281.275 236.153 284.679 233.521 289.027 233.316ZM74.1832 218.927C74.1758 214.187 78.1665 210.192 83.0743 210.192H262.937C267.845 210.192 271.837 214.183 271.837 219.09L283.189 309.806C283.196 314.875 279.205 318.87 274.297 318.87H71.7145C66.8068 318.87 62.816 314.88 62.816 309.972L74.1832 218.927ZM40.1608 209.426C47.8057 210.009 53.5803 216.053 53.0544 222.918C52.5278 229.787 45.905 234.88 38.2601 234.297C30.6151 233.714 24.8405 227.674 25.3671 220.805C25.8936 213.936 32.5152 208.843 40.1608 209.426ZM13.0483 262.14C13.06 261.742 13.461 261.432 13.9498 261.443L28.0282 261.856L28.3648 250.315C28.3766 249.917 28.7812 249.606 29.2663 249.618L40.7015 249.955C41.1866 249.97 41.5727 250.303 41.5616 250.701L41.2244 262.242L55.2991 262.655C55.7836 262.67 56.1703 263.003 56.1585 263.401L55.882 272.776C55.8708 273.174 55.4655 273.485 54.9805 273.473L40.902 273.06L40.5648 284.602C40.5537 285 40.1484 285.31 39.6633 285.299L28.2281 284.961C27.7436 284.946 27.3569 284.613 27.3687 284.215L27.7096 272.674L13.6311 272.261C13.146 272.247 12.76 271.913 12.7711 271.515L13.0483 262.14Z" fill="#AA2B0F"/>
</g>
</svg>
