<svg width="492" height="492" viewBox="0 0 492 492" fill="none" xmlns="http://www.w3.org/2000/svg">
<g opacity="0.5" clip-path="url(#clip0)">
<path d="M113.672 446.616L149.018 435.89L157.956 465.346L122.61 476.071L113.672 446.616Z" fill="#AA2B0F"/>
<path d="M29.6575 169.738L65.0036 159.013L145.443 424.109L110.097 434.834L29.6575 169.738Z" fill="#AA2B0F"/>
<path d="M33.0302 117.247L26.0824 157.956L61.4286 147.231L33.0302 117.247Z" fill="#AA2B0F"/>
<path d="M138.67 359.385L157.933 422.866C161.345 424.507 164.828 425.934 168.439 426.897L138.67 359.385Z" fill="#AA2B0F"/>
<path d="M100.926 234.996C100.907 229.971 101.009 224.941 101.393 219.91C99.2318 217.792 96.5759 214.976 93.837 211.632L100.926 234.996Z" fill="#AA2B0F"/>
<path d="M205.129 90.7601C177.753 99.0668 153.559 112.41 133.618 129.295C145.59 137.88 158.637 149.56 162.306 161.655C166.818 176.524 164.684 192.515 162.847 201.262C181.757 225.375 194.58 253.831 199.894 284.065L222.361 411.918C248.261 373.179 211.459 275.408 256.968 261.6C309.987 245.512 333.427 386.368 392.337 368.492C451.248 350.617 449.258 280.453 422.444 192.088C395.631 103.723 299.385 62.1594 205.129 90.7601ZM235.517 190.907C215.994 196.831 195.37 185.809 189.446 166.287C183.522 146.764 194.544 126.139 214.066 120.215C233.589 114.291 254.214 125.313 260.138 144.836C266.062 164.359 255.04 184.984 235.517 190.907ZM301.577 196.596C295.653 177.073 306.675 156.449 326.198 150.525C345.721 144.601 366.346 155.623 372.27 175.146C378.193 194.668 367.172 215.293 347.649 221.217C328.126 227.141 307.501 216.119 301.577 196.596ZM393.922 310.111C377.657 315.046 360.465 305.858 355.53 289.593C350.594 273.328 359.782 256.136 376.047 251.2C392.312 246.265 409.504 255.453 414.44 271.718C419.375 287.983 410.188 305.175 393.922 310.111Z" fill="#AA2B0F"/>
<path d="M149.468 204.151C149.468 204.151 155.887 182.903 150.525 165.23C145.162 147.557 106.769 127.039 106.769 127.039C106.769 127.039 86.2517 165.432 91.6143 183.105C96.977 200.778 114.122 214.876 114.122 214.876L149.468 204.151Z" fill="#AA2B0F"/>
<path d="M157.526 214.572L113.214 228.018C112.304 254.195 117.261 280.304 127.872 304.374L186.545 437.46C189.385 443.894 196.575 447.194 203.297 445.154C210.018 443.115 214.162 436.376 212.95 429.455L187.773 286.205C183.217 260.29 172.829 235.83 157.526 214.572Z" fill="#AA2B0F"/>
</g>
<defs>
<clipPath id="clip0">
<rect width="394" height="394" fill="white" transform="translate(0 114.403) rotate(-16.8797)"/>
</clipPath>
</defs>
</svg>
