<svg width="1920" height="1059" viewBox="0 0 1920 1059" fill="none" xmlns="http://www.w3.org/2000/svg">
<g opacity="0.99">
<path d="M-51 590.843C101.855 325.094 290.677 186.392 960.043 102.472V590.843H-51Z" fill="url(#paint0_linear)"/>
<path d="M1970 590.842C1817.14 325.094 1628.32 186.392 958.957 102.471V590.842H1970Z" fill="url(#paint1_linear)"/>
<rect x="-20.4175" y="589.842" width="1957.31" height="744.822" fill="url(#paint2_linear)"/>
</g>
<path d="M219.97 344.153C210.529 314.268 205.536 282.558 205.189 250.291C205.096 241.309 205.365 232.314 205.994 223.307C206.019 222.841 205.885 222.39 205.62 222.051C205.355 221.712 204.979 221.511 204.573 221.491C204.166 221.47 203.76 221.631 203.44 221.94C203.12 222.248 202.912 222.681 202.859 223.147C200.588 255.939 203.038 288.658 210.112 319.994C212.092 328.742 214.425 337.353 217.111 345.828C217.787 347.966 220.642 346.278 219.97 344.153Z" fill="#CE7522"/>
<path d="M213.372 224.194C223.208 218.414 227.5 204.819 222.958 193.829C218.416 182.84 206.76 178.616 196.923 184.396C187.087 190.176 182.795 203.771 187.337 214.761C191.88 225.75 203.536 229.974 213.372 224.194Z" fill="#CE7522"/>
<path d="M222.346 343.698C216.222 324.31 212.982 303.739 212.757 282.806C212.697 276.978 212.871 271.143 213.279 265.3C213.296 264.998 213.209 264.705 213.037 264.486C212.865 264.266 212.621 264.135 212.357 264.122C212.094 264.108 211.83 264.213 211.623 264.413C211.415 264.613 211.28 264.894 211.246 265.196C209.772 286.47 211.362 307.696 215.951 328.025C217.236 333.7 218.749 339.287 220.492 344.784C220.93 346.172 222.782 345.077 222.346 343.698L222.346 343.698Z" fill="#CE7522"/>
<path d="M218.065 265.875C224.447 262.125 227.231 253.305 224.284 246.176C221.338 239.046 213.776 236.307 207.395 240.056C201.013 243.806 198.229 252.626 201.176 259.755C204.122 266.885 211.684 269.625 218.065 265.875Z" fill="#CE7522"/>
<path d="M220.247 343.038C204.81 332.691 191.097 319.424 179.655 303.766C176.472 299.405 173.477 294.874 170.668 290.173C170.519 289.933 170.291 289.773 170.032 289.728C169.773 289.682 169.503 289.755 169.28 289.93C169.057 290.105 168.897 290.369 168.836 290.666C168.774 290.963 168.814 291.27 168.948 291.523C179.184 308.631 191.899 323.552 206.586 335.688C210.689 339.074 214.932 342.231 219.314 345.161C220.418 345.901 221.345 343.774 220.247 343.038Z" fill="#CE7522"/>
<path d="M169.581 292.507C175.962 288.758 178.747 279.938 175.8 272.808C172.853 265.679 165.291 262.939 158.91 266.689C152.529 270.439 149.745 279.258 152.691 286.388C155.638 293.517 163.2 296.257 169.581 292.507Z" fill="#CE7522"/>
<path d="M412.439 221.375C400.322 183.014 393.912 142.313 393.466 100.895C393.348 89.3654 393.692 77.8203 394.5 66.2595C394.532 65.6605 394.36 65.0824 394.02 64.6472C393.68 64.2121 393.198 63.9541 392.676 63.9273C392.154 63.9005 391.633 64.107 391.222 64.5036C390.812 64.9001 390.544 65.4557 390.476 66.0529C387.561 108.145 390.706 150.142 399.786 190.364C402.328 201.593 405.322 212.646 408.77 223.524C409.638 226.269 413.302 224.102 412.439 221.375Z" fill="#CE7522"/>
<path d="M403.97 67.3961C416.595 59.9769 422.104 42.5271 416.274 28.4209C410.444 14.3146 395.483 8.89374 382.857 16.3129C370.231 23.7321 364.722 41.1819 370.552 55.2882C376.383 69.3944 391.344 74.8153 403.97 67.3961Z" fill="#CE7522"/>
<path d="M415.489 220.791C407.628 195.904 403.47 169.499 403.18 142.63C403.104 135.15 403.327 127.66 403.851 120.16C403.872 119.772 403.76 119.397 403.539 119.114C403.319 118.832 403.006 118.665 402.667 118.647C402.329 118.63 401.991 118.764 401.724 119.021C401.458 119.278 401.285 119.639 401.24 120.026C399.349 147.333 401.39 174.579 407.28 200.673C408.929 207.957 410.872 215.128 413.108 222.185C413.671 223.966 416.049 222.56 415.489 220.791L415.489 220.791Z" fill="#CE7522"/>
<path d="M409.995 120.899C418.186 116.086 421.76 104.765 417.977 95.614C414.195 86.4627 404.489 82.9459 396.298 87.7591C388.107 92.5723 384.533 103.893 388.316 113.044C392.098 122.195 401.804 125.712 409.995 120.899Z" fill="#CE7522"/>
<path d="M412.795 219.943C392.98 206.662 375.378 189.632 360.692 169.534C356.607 163.937 352.762 158.121 349.157 152.087C348.965 151.778 348.672 151.573 348.34 151.515C348.007 151.456 347.661 151.549 347.375 151.774C347.088 151.999 346.884 152.338 346.804 152.719C346.725 153.101 346.777 153.495 346.949 153.819C360.087 175.779 376.408 194.931 395.26 210.509C400.527 214.854 405.972 218.907 411.597 222.668C413.015 223.618 414.204 220.887 412.795 219.943Z" fill="#CE7522"/>
<path d="M347.762 155.083C355.952 150.27 359.526 138.949 355.744 129.798C351.962 120.646 342.256 117.129 334.065 121.943C325.874 126.756 322.3 138.076 326.082 147.228C329.865 156.379 339.571 159.896 347.762 155.083Z" fill="#CE7522"/>
<defs>
<linearGradient id="paint0_linear" x1="454.522" y1="102.472" x2="454.522" y2="590.843" gradientUnits="userSpaceOnUse">
<stop stop-color="#BD1E0E"/>
<stop offset="1" stop-color="#BD1E0E" stop-opacity="0.76"/>
</linearGradient>
<linearGradient id="paint1_linear" x1="1464.48" y1="102.471" x2="1464.48" y2="590.842" gradientUnits="userSpaceOnUse">
<stop stop-color="#BD1E0E"/>
<stop offset="1" stop-color="#BD1E0E" stop-opacity="0.76"/>
</linearGradient>
<linearGradient id="paint2_linear" x1="958.236" y1="589.842" x2="958.236" y2="1334.66" gradientUnits="userSpaceOnUse">
<stop stop-color="#CD5549"/>
<stop offset="0.78652" stop-color="#CD5549" stop-opacity="0"/>
</linearGradient>
</defs>
</svg>
