<svg width="1920" height="2800" viewBox="0 0 1920 2800" fill="none" xmlns="http://www.w3.org/2000/svg">
<g clip-path="url(#clip0)">
<rect width="1920" height="2800" fill="white"/>
<g opacity="0.99">
<path d="M-51 2331.84C101.855 2066.09 290.677 1927.39 960.043 1843.47V2331.84H-51Z" fill="url(#paint0_linear)"/>
<path d="M1970 2331.84C1817.14 2066.09 1628.32 1927.39 958.957 1843.47V2331.84H1970Z" fill="url(#paint1_linear)"/>
<rect x="-20.4175" y="2330.84" width="1957.31" height="744.822" fill="url(#paint2_linear)"/>
</g>
<path opacity="0.8" fill-rule="evenodd" clip-rule="evenodd" d="M1064.64 154.738L959.821 47.3525L855 154.738H864.625L960.385 89.3875L1056.14 154.738H1064.64Z" fill="#013300"/>
<path opacity="0.8" fill-rule="evenodd" clip-rule="evenodd" d="M1027.11 69.2081L959.556 0L892 69.2081H898.203L959.919 27.0904L1021.64 69.2081H1027.11Z" fill="#013300"/>
<rect x="950" y="108.465" width="16" height="1740" fill="#AA2B0F"/>
<path d="M219.97 2085.15C210.529 2055.27 205.536 2023.56 205.189 1991.29C205.096 1982.31 205.365 1973.31 205.994 1964.31C206.019 1963.84 205.885 1963.39 205.62 1963.05C205.355 1962.71 204.979 1962.51 204.573 1962.49C204.166 1962.47 203.76 1962.63 203.44 1962.94C203.12 1963.25 202.912 1963.68 202.859 1964.15C200.588 1996.94 203.038 2029.66 210.112 2060.99C212.092 2069.74 214.425 2078.35 217.111 2086.83C217.787 2088.97 220.642 2087.28 219.97 2085.15Z" fill="#CE7522"/>
<path d="M213.372 1965.19C223.208 1959.41 227.5 1945.82 222.958 1934.83C218.416 1923.84 206.76 1919.62 196.923 1925.4C187.087 1931.18 182.795 1944.77 187.337 1955.76C191.88 1966.75 203.536 1970.97 213.372 1965.19Z" fill="#CE7522"/>
<path d="M222.346 2084.7C216.222 2065.31 212.982 2044.74 212.757 2023.81C212.697 2017.98 212.871 2012.14 213.279 2006.3C213.296 2006 213.209 2005.71 213.037 2005.49C212.865 2005.27 212.621 2005.14 212.357 2005.12C212.094 2005.11 211.83 2005.21 211.623 2005.41C211.415 2005.61 211.28 2005.89 211.246 2006.2C209.772 2027.47 211.362 2048.7 215.951 2069.03C217.236 2074.7 218.749 2080.29 220.492 2085.78C220.93 2087.17 222.782 2086.08 222.346 2084.7L222.346 2084.7Z" fill="#CE7522"/>
<path d="M218.065 2006.87C224.447 2003.12 227.231 1994.31 224.284 1987.18C221.338 1980.05 213.776 1977.31 207.395 1981.06C201.013 1984.81 198.229 1993.63 201.176 2000.76C204.122 2007.88 211.684 2010.62 218.065 2006.87Z" fill="#CE7522"/>
<path d="M220.247 2084.04C204.81 2073.69 191.097 2060.42 179.655 2044.77C176.472 2040.41 173.477 2035.87 170.668 2031.17C170.519 2030.93 170.291 2030.77 170.032 2030.73C169.773 2030.68 169.503 2030.75 169.28 2030.93C169.057 2031.1 168.897 2031.37 168.836 2031.67C168.774 2031.96 168.814 2032.27 168.948 2032.52C179.184 2049.63 191.899 2064.55 206.586 2076.69C210.689 2080.07 214.932 2083.23 219.314 2086.16C220.418 2086.9 221.345 2084.77 220.247 2084.04Z" fill="#CE7522"/>
<path d="M169.581 2033.51C175.962 2029.76 178.747 2020.94 175.8 2013.81C172.853 2006.68 165.291 2003.94 158.91 2007.69C152.529 2011.44 149.745 2020.26 152.691 2027.39C155.638 2034.52 163.2 2037.26 169.581 2033.51Z" fill="#CE7522"/>
<path d="M412.439 1962.37C400.322 1924.01 393.912 1883.31 393.466 1841.89C393.348 1830.37 393.692 1818.82 394.5 1807.26C394.532 1806.66 394.36 1806.08 394.02 1805.65C393.68 1805.21 393.198 1804.95 392.676 1804.93C392.154 1804.9 391.633 1805.11 391.222 1805.5C390.812 1805.9 390.544 1806.46 390.476 1807.05C387.561 1849.15 390.706 1891.14 399.786 1931.36C402.328 1942.59 405.322 1953.65 408.77 1964.52C409.638 1967.27 413.302 1965.1 412.439 1962.37Z" fill="#CE7522"/>
<path d="M403.97 1808.4C416.595 1800.98 422.104 1783.53 416.274 1769.42C410.444 1755.31 395.483 1749.89 382.857 1757.31C370.231 1764.73 364.722 1782.18 370.552 1796.29C376.383 1810.39 391.344 1815.82 403.97 1808.4Z" fill="#CE7522"/>
<path d="M415.489 1961.79C407.628 1936.9 403.47 1910.5 403.18 1883.63C403.104 1876.15 403.327 1868.66 403.851 1861.16C403.872 1860.77 403.76 1860.4 403.539 1860.11C403.319 1859.83 403.006 1859.66 402.667 1859.65C402.329 1859.63 401.991 1859.76 401.724 1860.02C401.458 1860.28 401.285 1860.64 401.24 1861.03C399.349 1888.33 401.39 1915.58 407.28 1941.67C408.929 1948.96 410.872 1956.13 413.108 1963.18C413.671 1964.97 416.049 1963.56 415.489 1961.79L415.489 1961.79Z" fill="#CE7522"/>
<path d="M409.995 1861.9C418.186 1857.09 421.76 1845.77 417.977 1836.61C414.195 1827.46 404.489 1823.95 396.298 1828.76C388.107 1833.57 384.533 1844.89 388.316 1854.04C392.098 1863.2 401.804 1866.71 409.995 1861.9Z" fill="#CE7522"/>
<path d="M412.795 1960.94C392.98 1947.66 375.378 1930.63 360.692 1910.53C356.607 1904.94 352.762 1899.12 349.157 1893.09C348.965 1892.78 348.672 1892.57 348.34 1892.51C348.007 1892.46 347.661 1892.55 347.375 1892.77C347.088 1893 346.884 1893.34 346.804 1893.72C346.725 1894.1 346.777 1894.49 346.949 1894.82C360.087 1916.78 376.408 1935.93 395.26 1951.51C400.527 1955.85 405.972 1959.91 411.597 1963.67C413.015 1964.62 414.204 1961.89 412.795 1960.94Z" fill="#CE7522"/>
<path d="M347.762 1896.08C355.952 1891.27 359.526 1879.95 355.744 1870.8C351.962 1861.65 342.256 1858.13 334.065 1862.94C325.874 1867.76 322.3 1879.08 326.082 1888.23C329.865 1897.38 339.571 1900.9 347.762 1896.08Z" fill="#CE7522"/>
</g>
<defs>
<linearGradient id="paint0_linear" x1="454.522" y1="1843.47" x2="454.522" y2="2331.84" gradientUnits="userSpaceOnUse">
<stop stop-color="#BD1E0E"/>
<stop offset="1" stop-color="#BD1E0E" stop-opacity="0.76"/>
</linearGradient>
<linearGradient id="paint1_linear" x1="1464.48" y1="1843.47" x2="1464.48" y2="2331.84" gradientUnits="userSpaceOnUse">
<stop stop-color="#BD1E0E"/>
<stop offset="1" stop-color="#BD1E0E" stop-opacity="0.76"/>
</linearGradient>
<linearGradient id="paint2_linear" x1="958.236" y1="2330.84" x2="958.236" y2="3075.66" gradientUnits="userSpaceOnUse">
<stop stop-color="#CD5549"/>
<stop offset="0.78652" stop-color="#CD5549" stop-opacity="0"/>
</linearGradient>
<clipPath id="clip0">
<rect width="1920" height="2800" fill="white"/>
</clipPath>
</defs>
</svg>
